<svg xmlns="http://www.w3.org/2000/svg" viewBox="0 0 568.5 195.1"><defs><style>.cls-4{fill:#8a5936}.cls-5{fill:#fab280}.cls-6{fill:#995036;opacity:.8}.cls-8{fill:#382010}.cls-9{fill:#a55334}.cls-29,.cls-9{opacity:.4}.cls-10{fill:#fdcc9a}.cls-12{fill:#6b472d}.cls-14,.cls-34{fill:#fff}.cls-15{fill:#ba8663}.cls-16{fill:#a32722}.cls-17{fill:#77562f}.cls-20{fill:#321b0f}.cls-22,.cls-29{fill:#754724}.cls-23{fill:#efc7b0}.cls-24{fill:#ad683a}.cls-26{fill:#f0d0b4}.cls-27{fill:#89827e}.cls-30{fill:#9c2015}.cls-31{fill:#cf9e76}.cls-33{fill:#4f2f1a}.cls-34{opacity:.65}.cls-36{fill:#8f4f36}</style><clipPath id="clip-path" transform="translate(-10)"><path fill="none" d="M0 15.1h594v180H0z"/></clipPath></defs><g style="isolation:isolate"><g id="Layer_2" data-name="Layer 2"><g id="Layer_1-2" clip-path="url(#clip-path)" data-name="Layer 1"><path d="M568.3 144.6s10.2 6.8 10.2 17.1c0 16.7-8 16-6 20 .6 1.5-1 2.5-4.9.9-5.6-2.3-15.4-8.9-8.6-24.6s6.7-15.3 9.3-13.4z" class="cls-4" transform="translate(-10)"/><path d="M506 143s-6.3-28 5.4-41.3c10.8-12.2 24.5-12.2 31-12.2s29.5 4.5 32.7 26.7c3.6 25-4 24-4 24s-26.1 18.3-36.6 14C518.7 148 506 143 506 143z" class="cls-4" transform="translate(-10)"/><path d="M516.3 108.3c5-7.3 10.1-12.6 18.6-13h.4V95l4.2.2 4.2-.2v.3h.4c8.4.4 13.5 6 18.6 13 8.5 11.9 6.5 26.6 6.5 39.2 0 20.7-17.8 27.8-29.7 27.8s-29.8-7.2-29.8-27.8c0-12.6-2-26.3 6.6-39.2z" class="cls-5" transform="translate(-10)"/><path d="M516.2 143c.6 4.8-2.1 9.1-6 9.6s-7.7-3-8.3-7.9 2.2-9.2 6.1-9.7 7.6 3 8.2 8zM563.4 143c-.6 4.8 2.1 9.1 6 9.6s7.7-3 8.3-7.9-2.1-9.2-6-9.7-7.7 3-8.3 8z" class="cls-5" transform="translate(-10)"/><path d="M558.3 97a36.6 36.6 0 0 0-30.2-3c-5.3 1.8-18.2 6.4-19.5 23.6-1 6-3.8 15-3.7 18.8l3.1 3.8s3.8-13.5 25.8-19.7c14.5-4 19.4-8.6 19.4-8.6s1.5 6.2 7.7 12.7c8.2 8.5 10 15 10 15l4-3-3.2-8.8c0-10.1.3-21.6-13.4-30.7z" class="cls-4" transform="translate(-10)"/><path d="M530.4 158.6a1.4 1.4 0 0 1 2.5-.5c1 1.5 3.6 2.7 6.2 2.9a9 9 0 0 0 7.4-3 1.4 1.4 0 0 1 2.4.9 1.4 1.4 0 0 1-.3 1 11.5 11.5 0 0 1-8.8 3.9h-.8c-3.6-.3-6.9-1.9-8.4-4.1a1.4 1.4 0 0 1-.3-1z" class="cls-6" transform="translate(-10)"/><path d="M522.9 170.4H537v17.3h-14.1z" class="cls-5"/><path fill="#c93131" d="M512.9 196.4c3-10.6 6.7-12.2 12.3-14.6l7.5-1.9s.7 3.1 6.7 3.1 7.4-3.1 7.4-3.1l5 1.4c7.4 2.2 11 5.3 13.7 11 .3.5.8 2.1 1.4 4z" transform="translate(-10)"/><path d="M527.1 140.1a3.6 3.6 0 1 1-3.5-3.6 3.6 3.6 0 0 1 3.5 3.6zM559 140.1a3.6 3.6 0 1 1-3.6-3.6 3.6 3.6 0 0 1 3.6 3.6z" class="cls-8" transform="translate(-10)"/><path d="M550.8 134.5a1.6 1.6 0 0 0 1.3-.6 4.2 4.2 0 0 1 6.3 0 1.7 1.7 0 0 0 2.3.3 1.5 1.5 0 0 0 .2-2.1 7.5 7.5 0 0 0-11.4 0 1.5 1.5 0 0 0 .3 2.1 1.7 1.7 0 0 0 1 .3zM519.1 134.5a1.6 1.6 0 0 0 1.3-.6 4.2 4.2 0 0 1 6.3 0 1.7 1.7 0 0 0 2.3.3 1.5 1.5 0 0 0 .3-2.1 7.5 7.5 0 0 0-11.4 0 1.5 1.5 0 0 0 .2 2.1 1.7 1.7 0 0 0 1 .3z" class="cls-4" transform="translate(-10)"/><path d="M537.3 153.3h4.7a1.4 1.4 0 0 0 0-2.8h-4.7a1.4 1.4 0 1 0 0 2.8z" class="cls-9" transform="translate(-10)"/><path d="M31.5 175.9h17.9v21.9H31.5z" class="cls-10"/><path fill="#c53d27" d="M64.4 190.6l-1-.4-4-3.8-9 5.5-9-5.5-3.8 3.6-2.5 1c-10.6 3.6-16.5 6-19.8 10.4h70.3c-3.4-4.6-9.7-7-21.2-10.8z" transform="translate(-10)"/><path d="M70.3 149a10.5 10.5 0 0 0 8.2 12.6 10.2 10.2 0 0 0 12.3-8.5c1-6.3-2.6-12.3-8.3-13.4s-11.1 3-12.2 9.3zM30.7 149a10.5 10.5 0 0 1-8.3 12.6 10.2 10.2 0 0 1-12.2-8.5c-1.1-6.3 2.6-12.3 8.2-13.4s11.2 3 12.3 9.3z" class="cls-10" transform="translate(-10)"/><path d="M78.8 107A31 31 0 0 0 55.4 94H55v-.3l-4.6.1-4.5-.1v.3h-.4A31 31 0 0 0 22 107c-5.5 7.6-6.3 17-5.8 26.1.3 6.9 1.5 18 1.9 24.8 5.5 20.8 19.4 24.4 32.2 24.4s27.2-3.6 32.3-24.4c.4-6.8 1.6-17.9 1.9-24.8.5-9-.3-18.5-5.8-26z" class="cls-10" transform="translate(-10)"/><path d="M37 146.3c0 2.7-1.8 4.9-4 4.9s-4.2-2.2-4.2-4.9 1.9-4.9 4.2-4.9 4 2.2 4 5zM72.4 146.3c0 2.7-1.8 4.9-4 4.9s-4.2-2.2-4.2-4.9 1.8-4.9 4.1-4.9 4.1 2.2 4.1 5z" class="cls-8" transform="translate(-10)"/><path d="M27.2 136.4a1.3 1.3 0 0 1-1-.3 1.4 1.4 0 0 1 0-2c2.4-2.5 9.2-4 13.3-1.2a1.4 1.4 0 1 1-1.6 2.3c-3-2-8.2-.7-9.7.8a1.3 1.3 0 0 1-1 .4zM74.3 136.6a1.4 1.4 0 0 1-1-.5c-2-2.2-7-2.1-10 .1a1.4 1.4 0 1 1-1.7-2.1c4.1-3.2 10.7-3 13.7.1a1.4 1.4 0 0 1 0 2 1.4 1.4 0 0 1-1 .4z" class="cls-12" transform="translate(-10)"/><path fill="#89644a" d="M19.1 140.9c.3-5-1.6-17.7 5-20.6a16 16 0 0 1 8-.9c9.3 1 18 5.5 34.2 2.9 9-1.5 11.4-3 13.8-5 1-.8 1.2 14 1.3 18.6v10.2c0 .5-.1 1.8 1.6 1.8 1.2 0 1.4-3.3 1.4-3.9.7-9.5 1.1-14.6.7-23.5-.2-4.3-.1-4.2-.5-8 2.7-2.1 4.4-6 4.4-10.6a16.3 16.3 0 0 1-4.3 1.9 18.5 18.5 0 0 0 3.7-13.4 10.7 10.7 0 0 1-8.7 3.3 5.5 5.5 0 0 0 0-6.3c-1.5 2-4.4 3.3-8.3 4-8.7 1.4-25.1-9.7-45.8 5.6-7.2 5.3-9.9 15.1-9.9 24.5v20.7c0 1.1 0 4.9 1.3 5.8s2.2-.5 2.1-1.6v-5.5z" transform="translate(-10)"/><path d="M39.2 166c4.8 13.5 22.5 8.7 23.5-.8z" class="cls-14" transform="translate(-10)"/><path d="M50.6 175.5c-5.9 0-10.4-3.4-12.5-9.2a1.2 1.2 0 0 1 .1-1 1.2 1.2 0 0 1 1-.5l23.5-.8a1.1 1.1 0 0 1 .9.4 1.1 1.1 0 0 1 .3.9c-.6 5.6-6.6 10.2-13.3 10.2zm-9.7-8.5a10.4 10.4 0 0 0 9.7 6.2c5 0 9.5-3 10.7-6.8z" class="cls-15" transform="translate(-10)"/><path d="M41.1 201.5l-3.8-10.6a.7.7 0 0 1 1.3-.5l3.2 8.7 8.2-6.8a.7.7 0 0 1 .9 1z" class="cls-16" transform="translate(-10)"/><path d="M59.7 201.5l-9.7-8.2a.7.7 0 0 1 0-1 .7.7 0 0 1 1 0L59 199l3.2-8.6a.7.7 0 0 1 1.3.5z" class="cls-16" transform="translate(-10)"/><path d="M51 193.6a.7.7 0 1 0-1.3 0 44.5 44.5 0 0 0 .4 7.9h1.4a43.8 43.8 0 0 1-.4-7.9z" class="cls-16" transform="translate(-10)"/><path d="M458.6 163.5h17v14.3h-17z" class="cls-17"/><path fill="#86c6ed" d="M512.3 194.5c-.9-2.3-1.5-4-1.9-4.7-3.4-7.7-5-8.5-18.7-13.2a4.5 4.5 0 0 1-1.6-1.1l-3.9-3.8h-.1l-8.6 5.5a.2.2 0 0 1 0 .1l-.2.1a.8.8 0 0 1-.2 0 .7.7 0 0 1-.3 0 .2.2 0 0 1-.2-.2l-8.5-5.5h-.2l-3.9 3.8a4.4 4.4 0 0 1-1.5 1c-13.7 4.8-15.3 5.6-18.8 13.3l-1.9 4.7z" transform="translate(-10)"/><path d="M503.3 97.7c-5.3-7.7-12.1-7.7-21.3-8h-.5v-.4l-4.5.2-4.5-.2v.3h-.5c-9.2.4-15.8 6.2-21.4 13.8-9.2 12.4-5 23.2-5 36.5 0 21.9 18.4 29.3 31.4 29.3s31.5-7.6 31.5-29.3c0-13.3 4.3-28.7-5.2-42.2z" class="cls-17" transform="translate(-10)"/><path d="M495.2 133.8a11.2 11.2 0 0 0 8.8 13.4 10.8 10.8 0 0 0 13-9c1.2-6.7-2.8-13-8.8-14.2s-11.8 3.2-13 9.8zM457 133.8c1.2 6.7-.8 12.2-6.8 13.4a10.8 10.8 0 0 1-13-9c-1.2-6.7 2.7-13 8.8-14.2s9.9 3.2 11 9.8z" class="cls-17" transform="translate(-10)"/><path fill="#5a94b7" d="M490 175.6a.7.7 0 0 0-1 .5l-3.2 8.9-8.2-7.1h-.1l-.1-.1h-.7l-8.3 7.2-3.1-9a.7.7 0 0 0-1-.4.9.9 0 0 0-.5 1l4 10.8 9.3-8 9.3 8 4-10.8a.7.7 0 0 0-.5-1z" transform="translate(-10)"/><path d="M465.2 135.5a1.5 1.5 0 0 1-1.1-.7 3.6 3.6 0 0 0-5.7-.5 1.4 1.4 0 1 1-2.2-2 6.5 6.5 0 0 1 10.3 1 1.4 1.4 0 0 1-.4 2 1.5 1.5 0 0 1-1 .2zM497 134.8a1.5 1.5 0 0 1-1.2-.5 3.6 3.6 0 0 0-5.7.5 1.4 1.4 0 1 1-2.5-1.6 6.5 6.5 0 0 1 10.3-.9 1.5 1.5 0 0 1-.9 2.5zM497.2 125.5h-8.9a1.5 1.5 0 0 1 0-3h8.9a1.5 1.5 0 1 1 0 3zM465.8 125.5H457a1.5 1.5 0 0 1 0-3h8.9a1.5 1.5 0 0 1 0 3z" class="cls-8" transform="translate(-10)"/><path d="M445.7 129.6c0-9-1.2-23.2 6.6-23.2 5.7 0 6.3 1.3 23.7 1.3 15.4 0 19-1.7 24.7-1.7 6.2 0 7.9 6.4 7.9 18.1 0 10-.4 13.4 1.5 13.4 2 0 1.7-11.4 1.7-16 0-8.7 2.5-25.4-13-35.8-9.4-6.4-27-6-38-2.4-7.5 2.5-13.8 9-16.5 16.7-3 8.4-1.9 12-1.9 28.7 0 7.1.7 9 2 9 0 0 1.3.5 1.3-8.1z" class="cls-20" transform="translate(-10)"/><path d="M488 153.4c-4.5 10.4-19.5 7.4-22 .1a.8.8 0 0 1 .8-1h20.7c.5 0 .8.4.6 1z" class="cls-14" transform="translate(-10)"/><path fill="#382010" d="M479.5 147.7h-4.8a1.4 1.4 0 0 1 0-3h4.8a1.4 1.4 0 1 1 0 3z" opacity=".6" transform="translate(-10)"/><path d="M501.2 126.6h-16.8a3.7 3.7 0 0 0-3.5 2.6h-7.6a3.8 3.8 0 0 0-3.6-2.6H453a3.8 3.8 0 0 0-3.7 3.8v7.8a3.8 3.8 0 0 0 3.7 3.7h16.8a3.8 3.8 0 0 0 3.8-3.7v-6.4h7.1v6.4a3.8 3.8 0 0 0 3.8 3.7h16.8a3.8 3.8 0 0 0 3.7-3.7v-7.8a3.8 3.8 0 0 0-3.8-3.8zM471 138.2a1.2 1.2 0 0 1-1.2 1.2H453a1.2 1.2 0 0 1-1.2-1.2v-7.8a1.2 1.2 0 0 1 1.2-1.2h16.8a1.2 1.2 0 0 1 1.2 1.2zm31.5 0a1.2 1.2 0 0 1-1.2 1.2h-16.8a1.2 1.2 0 0 1-1.2-1.2v-7.8a1.2 1.2 0 0 1 1.2-1.2h16.8a1.2 1.2 0 0 1 1.2 1.2z" class="cls-20" transform="translate(-10)"/><path d="M377.7 144.1c.5-.5 9.1-6.8 9-4.7-.4 4.3 3.5 1 5.6 1.8s3.7 4.7 6 6c3.8 2.4 12.6 6.1 16.3 1.6 1.5 4.6 5.4 6.4 8.5 2.6 5.7 4.2 14.3-1.5 13.6-8 5.7 3.9 14-2.3 9.6-9.7 6 .2 7.7-9 2.2-10.9 4.4-3.5 1.7-12.6-4-12.8 3-3.6-.3-9.9-4.6-10.3 1.8-3.8-1.3-6.6-5-6.1 1.8-4.1.7-12.3-9.8-9.6 3.7-12.4-11.6-20.5-20-15.4-2.2-9.6-15.5-7.5-17.9-1.9-1.2-4.7-8.8-3.5-8.3 1.3-5.9-5.4-21.1.4-17.8 10.2-12.6.5-17.7 11.2-13.3 17.3-8.4-1.2-11.7 9.4-6.4 14.1-7.6 1-9.3 12.5-3.8 15.8-4.7 5.5.8 11.5 4.2 10.7-2.8 4.8 2.2 13.3 8.2 9.5-1.7 9.2 10.6 11.8 13.6 6.4 4 9 10.8-4.6 14-7.9z" class="cls-22" transform="translate(-10)"/><path d="M422.7 87.1c-5.9-8.7-14.3-15.2-24.3-15.6h-.5V71l-5 .2-4.9-.3v.5h-.5c-10 .4-18.2 7-24.3 15.6-10 14.2-5.4 32-5.4 47 0 25 21 35.8 35.1 35.8s35.4-11 35.4-35.7c0-15.1 4.6-31.6-5.6-47z" class="cls-23" transform="translate(-10)"/><path d="M381 150.8c5.1 11.9 21.3 8.5 24.1 0a1 1 0 0 0-.9-1.4h-22.5c-.6 0-1 .6-.7 1.3z" class="cls-14" transform="translate(-10)"/><path d="M421.4 194.5v-.2a22.6 22.6 0 0 0-11.3-14.6c-2.9-1.6-6.3-3.4-9.8-5.5V164h-15.2v10.7l-8.6 4.6a22.7 22.7 0 0 0-11.8 15v.1h56.7zM419.6 128.9c-.8 6 2.7 11.5 7.8 12s9.7-3.7 10.5-9.8-2.8-11.4-7.8-12-9.8 3.7-10.6 9.8zM366.6 128.9c.7 6-2.8 11.5-7.8 12s-9.8-3.7-10.6-9.8 2.8-11.4 7.8-12.1 9.8 3.8 10.6 9.9z" class="cls-23" transform="translate(-10)"/><path d="M439.3 107.5a32.6 32.6 0 0 0-12.9-22 9 9 0 0 0-2.8-1c-.9-7-22.6-21.2-37-15-7.6 3.6-14.3-2.7-14.9 6.2C360 81.9 355 86.1 352 93a30.7 30.7 0 0 0-2.8 18.5c.6 2.3.5 4.3 2.5 5.6 3 1.9 6 1.6 9.1 2.6 6.6 2.1 12.1-6.7 11-10.1 0 0 9 3.2 13.2-5.2 8 5 15.7-1.6 14.8-5.8 4.6 5.3 12.1 2.5 14.7-3-2 7.4 4.3 10.9 7.1 10-3.4 4.4 1.1 11.6 6 9-2.3 6.2 4.1 11.3 9.7 11 7.5-.7 2.4-12.8 2-18z" class="cls-22" transform="translate(-10)"/><path d="M407.8 129.2a4.3 4.3 0 1 0 4.3-4.3 4.3 4.3 0 0 0-4.3 4.3zM369.5 129.2a4.3 4.3 0 1 0 4.3-4.3 4.3 4.3 0 0 0-4.3 4.3z" class="cls-8" transform="translate(-10)"/><path d="M379.4 122.4a2 2 0 0 1-1.6-.7 5 5 0 0 0-7.6 0 2 2 0 0 1-2.7.4 1.8 1.8 0 0 1-.3-2.6 9 9 0 0 1 13.7 0 1.8 1.8 0 0 1-.4 2.6 2 2 0 0 1-1.1.3zM417.4 122.4a2 2 0 0 1-1.5-.7 5 5 0 0 0-7.6 0 2 2 0 0 1-2.7.4 1.8 1.8 0 0 1-.3-2.6 9 9 0 0 1 13.7 0 1.8 1.8 0 0 1-.3 2.6 2 2 0 0 1-1.3.3z" class="cls-24" transform="translate(-10)"/><path fill="#2aa1d6" d="M414.3 181.4l-4.3-2.7a.9.9 0 0 0-1.4.7 7.7 7.7 0 0 1-7.7 7.7h-15.2a7.7 7.7 0 0 1-7.7-7.7v-.3a.9.9 0 0 0-1.4-.8l-4.2 2.7a.9.9 0 0 0-.4.7v12.8h42.7V182a.9.9 0 0 0-.4-.7z" transform="translate(-10)"/><path d="M396 143.7h-5.6a1.7 1.7 0 1 1 0-3.4h5.7a1.7 1.7 0 0 1 0 3.4z" class="cls-9" transform="translate(-10)"/><path d="M85.6 194.4h63.8c4.1-2.1 7.7-5.8 10.2-12.2 4.8-12-3.1-20.8-3.1-31.7l.7-24c0-20.6-12.5-42.7-40.4-42.7-25.8 0-40.3 22.1-40.3 42.8l.5 25c0 9.8-6.5 16.4-2.8 28.7 2.3 7.8 6.4 12 11.4 14.1z" class="cls-15" transform="translate(-10)"/><path d="M99.2 169.7H115v17.7H99.2z" class="cls-26"/><path d="M88.8 102.3c6.3-8.8 12.6-9 23-9.5h11.1c10.3.4 16.7.7 23 9.5s2.8 11.1 2.3 21.8c-.4 8 1.1-1.8 1.1 20.8 0 21.8-21.8 31.5-32 31.5s-31-8.3-31-31.5c0-24-.5-12.8-.8-20.9-.5-10.6-2.9-12.9 3.3-21.7z" class="cls-26" transform="translate(-10)"/><path d="M135.7 108.3s-14.6 14.1-55 23.4c0 0-.3-34.3 19.4-40 34.6-10 40.8 3.9 40.8 3.9s15.5 7 12 41.6c.1 0-11.7-3.8-17.2-29z" class="cls-15" transform="translate(-10)"/><path d="M125.8 194.5l-.4-14c-1.1 3.8-10.8 7.7-16.7 0l-.3 14z" class="cls-14" transform="translate(-10)"/><path d="M142.1 191.8l-.5-1.3c-3.3-6-8.1-7.7-9-8h-.2l-7-2a126.2 126.2 0 0 1-3.1 14h21a26.3 26.3 0 0 0-1.2-2.7zM101.7 182.6h-.1c-.9.2-5.6 1.8-9 8l-.6 1.2a28.8 28.8 0 0 0-1 2.7h20.9a126.2 126.2 0 0 1-3.2-14s-7 2-7 2z" class="cls-27" transform="translate(-10)"/><path d="M119.4 154.4h-4.8a1.4 1.4 0 0 1 0-3h4.8a1.4 1.4 0 0 1 0 3z" class="cls-9" transform="translate(-10)"/><path fill="#a55334" d="M126.6 159.4a1.4 1.4 0 0 0-1.7-1.1 1.4 1.4 0 0 0-1 .6c-1 1.5-3.6 2.7-6.3 3a9.2 9.2 0 0 1-7.5-3 1.4 1.4 0 0 0-1-.6 1.4 1.4 0 0 0-1 .4 1.4 1.4 0 0 0-.5 1 1.4 1.4 0 0 0 .3 1 11.8 11.8 0 0 0 9 4h.9c3.6-.2 7-1.9 8.5-4.2a1.4 1.4 0 0 0 .3-1z" opacity=".6" transform="translate(-10)"/><path d="M137.2 144.7a1.4 1.4 0 0 1-1.2-.5 3.6 3.6 0 0 0-5.7.5 1.4 1.4 0 1 1-2.4-1.5 6.5 6.5 0 0 1 10.2-1 1.4 1.4 0 0 1-1 2.5zM104.7 145.4a1.4 1.4 0 0 1-1-.7 3.6 3.6 0 0 0-5.8-.5 1.4 1.4 0 1 1-2-2 6.5 6.5 0 0 1 10.1 1 1.4 1.4 0 0 1-.4 2 1.5 1.5 0 0 1-.9.2z" class="cls-22" transform="translate(-10)"/><path d="M137.4 135.4h-8.8a1.4 1.4 0 0 1 0-2.9h8.8a1.4 1.4 0 1 1 0 3zM105.3 135.4h-8.8a1.4 1.4 0 0 1 0-2.9h8.8a1.4 1.4 0 0 1 0 3z" class="cls-29" transform="translate(-10)"/><ellipse cx="203.8" cy="79.3" class="cls-30" rx="24.2" ry="28.3" transform="rotate(-73.2 198.8 86)"/><path d="M218.5 87.1c-5.8-8.7-14.3-15.2-24.3-15.6h-.5V71l-5 .2-4.8-.2v.4h-.6c-10 .4-18.2 7-24.2 15.6-10 14.2-5.4 32-5.4 47.1 0 25 21 35.7 35 35.7s35.4-11 35.4-35.7c0-15.1 4.6-31.6-5.6-47z" class="cls-31" transform="translate(-10)"/><path d="M215.3 128.9c-.8 6 2.7 11.5 7.8 12s9.8-3.7 10.5-9.8-2.7-11.4-7.8-12-9.8 3.7-10.5 9.8z" class="cls-31" transform="translate(-10)"/><path d="M214.8 74.9a46.5 46.5 0 0 0-48.8 0c-9.8 5.5-22.7 19.5-24.6 43.6-.9 26.2 11.5 51 11.5 51 1.2-20-4-39.2 15-57.4 17.9-17.1 41.2-18.7 41.2-18.7s-.3 3.5 6.8 19 8.2 23 8.2 23a30.7 30.7 0 0 0 9.8-17.9 43.4 43.4 0 0 0-19-42.6z" class="cls-30" transform="translate(-10)"/><path d="M217.2 194.4a24.4 24.4 0 0 0-3.3-8.1c-1.4.4-2-.7-.6-1.3-2.4-3.4-9.8-6.3-17.2-10.8V164H181v10.7c-7.2 4.2-14 7-16.4 10.3 1.6.7 1 1.7-.7 1.3a24.2 24.2 0 0 0-3.2 8 .3.3 0 0 1 0 .2h56.6a.3.3 0 0 1 0-.1z" class="cls-31" transform="translate(-10)"/><path fill="#443f3c" d="M210.7 194.5a53 53 0 0 1 4.3-5.8 1.2 1.2 0 0 0 .2-1.4 21.8 21.8 0 0 0-8.2-8.1 1.2 1.2 0 0 0-1.5.2c-1.8 2.1-7.8 8-16.6 8.1-8.8-.1-14.8-6-16.7-8a1.2 1.2 0 0 0-1.5-.3 21.8 21.8 0 0 0-8.1 8.1 1.2 1.2 0 0 0 .1 1.4 53 53 0 0 1 4.3 5.8z" transform="translate(-10)"/><path d="M200 151a1.7 1.7 0 0 0-2-1.4 1.7 1.7 0 0 0-1 .7c-1.3 1.8-4.4 3.3-7.5 3.4a10.8 10.8 0 0 1-8.9-3.5 1.7 1.7 0 0 0-1.1-.5 1.7 1.7 0 0 0-1.2.4 1.6 1.6 0 0 0-.6 1.1 1.7 1.7 0 0 0 .4 1.2 13.8 13.8 0 0 0 10.6 4.7h1c4.3-.3 8.2-2.2 10-4.9a1.7 1.7 0 0 0 .3-1.3z" class="cls-6" transform="translate(-10)"/><path d="M203.6 128.5a4.3 4.3 0 1 0 4.3-4.3 4.3 4.3 0 0 0-4.3 4.3zM165.3 128.5a4.3 4.3 0 1 0 4.3-4.3 4.3 4.3 0 0 0-4.3 4.3z" class="cls-8" transform="translate(-10)"/><path d="M175.2 121.8a2 2 0 0 1-1.5-.7 5 5 0 0 0-7.7 0 2 2 0 0 1-2.7.3 1.7 1.7 0 0 1-.3-2.6 9 9 0 0 1 13.7 0 1.7 1.7 0 0 1-.3 2.6 2 2 0 0 1-1.2.4zM213.3 121.8a2 2 0 0 1-1.5-.7 5 5 0 0 0-7.7 0 2 2 0 0 1-2.7.3 1.7 1.7 0 0 1-.3-2.6 9 9 0 0 1 13.7 0 1.7 1.7 0 0 1-.3 2.6 2 2 0 0 1-1.2.4z" class="cls-33" transform="translate(-10)"/><path d="M191.7 144.6H186a1.7 1.7 0 0 1 0-3.5h5.7a1.7 1.7 0 0 1 0 3.5z" class="cls-9" transform="translate(-10)"/><path d="M578.5 161.7a18.5 18.5 0 0 0-3.9-10.8 9.7 9.7 0 0 0 3.1-6.2 9.3 9.3 0 0 0-2.8-8.2c1.2-3.2 1.8-9.1.2-20.3-3.2-22.2-26.3-26.8-32.7-26.8s-20.2.1-31 12.2l-.7 1A27.7 27.7 0 0 0 499 85.7c-9.5-6.4-27.1-6-38-2.4-7.6 2.5-13.9 9-16.6 16.7l-.6 1.8a5.9 5.9 0 0 0-3.8-2c1.8-3.9-1.3-6.7-5-6.2 1.8-4 .7-12.3-9.8-9.6 3.7-12.4-11.6-20.5-20-15.4-2.2-9.6-15.5-7.5-17.9-1.8-1.2-4.8-8.8-3.6-8.3 1.2-5.9-5.4-21.1.4-17.8 10.2-12.6.5-17.7 11.2-13.3 17.3-8.4-1.2-11.7 9.4-6.4 14.1-7.6 1-9.3 12.5-3.8 15.8-4.7 5.5.8 11.5 4.2 10.7-2.8 4.8 2.2 13.3 8.2 9.5-1.6 8.5 8.9 11.4 12.8 7.4 5.3 8.7 14 13.9 22.3 15.9v5.8l-7.3 4a.9.9 0 0 0-1.2-.3l-4.2 2.6a.9.9 0 0 0-.4.7v.6a22.5 22.5 0 0 0-7.3 12v.2h56.7v-.2a22.2 22.2 0 0 0-6.7-11.3v-.9a.9.9 0 0 0-.4-.7l-4.3-2.7a.9.9 0 0 0-1.2.3c-2.7-1.5-5.6-3-8.6-4.8V169c8.8-2 18.2-7.6 23.6-17.1 5.7 3.2 13.6-2.3 13-8.4a6.8 6.8 0 0 0 3.8 1.1 10.7 10.7 0 0 0 5.8 2.7c2.8 12.4 12.6 18.7 22.1 21v3.7l-.5-.3h-.1l-4 3.8a4.4 4.4 0 0 1-1.5 1c-13.7 4.8-15.2 5.5-18.7 13.3l-1.9 4.6h70.5l-1.9-4.6c-3.5-7.8-5-8.5-18.7-13.3a4.5 4.5 0 0 1-1.6-1l-3.9-3.8h-.1l-.5.3v-3.9a29 29 0 0 0 20.7-16.3 6.2 6.2 0 0 0 3.7.8c2.2 13.5 13 20 22.8 22v5.7a2.2 2.2 0 0 1-.1-.4l-7.5 1.9c-5.6 2.3-9.3 4-12.4 14.5h54c-.6-2-1-3.5-1.3-4.1-2.6-5.7-6.4-8.7-13.8-11L547 180v-5.5a32.6 32.6 0 0 0 10-4c1.1 7.1 6.9 10.7 10.7 12.2s5.5.6 4.8-.9c-1.8-4 6-3.3 6-20zM231 87.5c3.8-12.8-5.2-26.8-20.2-31.3-14.5-4.4-29.4 1.8-33.7 14a58.1 58.1 0 0 0-11.1 4.7 47.6 47.6 0 0 0-19.1 21.9 38 38 0 0 0-30-13A38.1 38.1 0 0 0 88 96.2a18.9 18.9 0 0 0 .3-5.8 10.7 10.7 0 0 1-8.8 3.3 5.5 5.5 0 0 0 0-6.3c-1.5 2-4.3 3.3-8.3 4-8.6 1.4-25-9.7-45.7 5.6-7.2 5.3-9.9 15.1-9.9 24.5v19.2a11.7 11.7 0 0 0-5.5 12.4 10.1 10.1 0 0 0 9.2 8.7c4.7 13 13.1 18 22.1 19.6v5l-3.9 3.6-2.5 1c-10.6 3.6-16.5 6-19.8 10.4h70.3c-3.4-4.6-9.7-7-21.2-10.9l-1-.3-4-3.9v-4.9a27.8 27.8 0 0 0 13.7-6.3 26.5 26.5 0 0 0 1 5.1c2.4 7.8 6.5 12 11.5 14.1H91v.1h58.5c4-2.2 7.7-5.9 10.2-12.2 4.7-12-3.1-20.8-3.1-31.8v-1.6a35.5 35.5 0 0 0 24.4 20v5.8c-3 1.8-6 3.3-8.6 4.8a1.2 1.2 0 0 0-1.6-.3 21.8 21.8 0 0 0-8.1 8.2 1.2 1.2 0 0 0 0 1.1 23.5 23.5 0 0 0-2 6h56.7a23.1 23.1 0 0 0-2-6 1.2 1.2 0 0 0 0-1.1 21.8 21.8 0 0 0-8.2-8.2 1.2 1.2 0 0 0-1.5.3l-9.4-5.3V169a35.3 35.3 0 0 0 27.5-28c4.8.3 9.3-4 10-9.9a12.4 12.4 0 0 0-1.4-7.5 27 27 0 0 0 1.7-6.1c1.3-6.9.3-17.1-4.4-26.4a21.3 21.3 0 0 0 1.2-3.6z" class="cls-34" transform="translate(-10)"/><circle cx="284.3" cy="104" r="84.5" class="cls-14"/><path d="M330.3 114c-.9 7.5 3.4 14.3 9.8 15s12.1-4.7 13-12.2-3.3-14.3-9.6-15.1-12.2 4.7-13.2 12.2zM256.4 114c1 7.5-3.4 14.3-9.7 15s-12.2-4.7-13.1-12.2 3.4-14.3 9.7-15.1 12.2 4.7 13.1 12.2z" class="cls-5" transform="translate(-10)"/><path d="M272.1 156.2h21.1v25.9h-21.1z" class="cls-5"/><path d="M251.2 55.9c9-13 18.4-13.4 33.5-14h16.4c15.1.6 24.5 1 33.6 14s4.2 16.2 3.5 31.8c-.6 11.8 1.6-2.5 1.6 30.6 0 32-31.9 46.2-46.9 46.2s-45.4-12.2-45.4-46.2c0-35.2-.7-18.8-1.3-30.6-.7-15.6-4.1-19 5-31.9z" class="cls-5" transform="translate(-10)"/><path d="M333 195c-4.6-15.8-10.1-18.2-18.5-21.7-.5-.3-11.2-3-11.2-3s-1 4.8-10 4.8-11-4.7-11-4.7l-7.6 2.1c-11 3.3-16.7 7.9-20.6 16.3l-2 6.3z" class="cls-20" transform="translate(-10)"/><path d="M277.6 98.8h-15.2a2.5 2.5 0 0 1 0-5h15.2a2.5 2.5 0 1 1 0 5zM321.8 102.8h-15.1a2.5 2.5 0 0 1 0-5h15.1a2.5 2.5 0 1 1 0 5z" class="cls-36" transform="translate(-10)"/><path d="M252.7 105.6a20 20 0 0 0 20.1 20.7c5.1 0 9.5-2 12-5.6a27.6 27.6 0 0 0 4-9.2 14.2 14.2 0 0 1 3.6-.4 10.8 10.8 0 0 1 4 .6 27.3 27.3 0 0 0 3.9 9c2.5 3.5 6.8 5.6 12 5.6a20 20 0 0 0 20-20.7c0-1.2 0-5-13.6-5a78.8 78.8 0 0 0-11.6 1c-6.7 1-10.4 3-11 5.6a16.7 16.7 0 0 0-3.6-.3 19.1 19.1 0 0 0-3.5.3c-1.8-6.4-22.2-6.5-23-6.5-9 0-13.3 1.6-13.3 5zm32.3 2.7a22.6 22.6 0 0 1-3.6 10c-1.7 2.5-4.8 3.9-8.5 3.9a15.8 15.8 0 0 1-15.9-16c.8-.5 3.6-1.2 9-1.2 10.1 0 18 2.1 19 3.3zm43.2-2.2a15.8 15.8 0 0 1-15.9 16c-3.7 0-6.8-1.4-8.5-3.8a22.4 22.4 0 0 1-3.6-10.1c.7-1 8-3.4 18.6-3.4 5.7 0 8.5.8 9.4 1.3z" class="cls-20" transform="translate(-10)"/><path fill="#725522" d="M238 85.5c0-24 6.3-37.8 25.5-48.4 26.5-14.5 69.2-9.8 85.3 25.8 6.1 13.5 4.4 53.9 4.4 53.9s-70.6-15.6-98.6-43.6c-7 19.8-7.4 48.7-7.4 48.7-5-5.9-9.2-26.8-9.2-36.5z" transform="translate(-10)"/><path d="M275.9 111a5 5 0 1 1-5-5 5 5 0 0 1 5 5zM319.2 111a5 5 0 1 1-5-5 5 5 0 0 1 5 5z" class="cls-8" transform="translate(-10)"/><path d="M306.9 141.1a2 2 0 0 0-3.8-.8c-1.6 2.3-5.4 4.1-9.4 4.3a13.4 13.4 0 0 1-11-4.4 2 2 0 0 0-2.9-.2 2 2 0 0 0-.2 3 17.2 17.2 0 0 0 13.2 5.8h1.2c5.4-.3 10.3-2.7 12.6-6a2.1 2.1 0 0 0 .3-1.7z" class="cls-6" transform="translate(-10)"/><path d="M295.8 134.2h-5.7a2.1 2.1 0 1 1 0-4.2h5.7a2.1 2.1 0 0 1 0 4.2z" class="cls-9" transform="translate(-10)"/></g></g></g></svg>